<svg xmlns="http://www.w3.org/2000/svg" xmlns:xlink="http://www.w3.org/1999/xlink" width="1080" zoomAndPan="magnify" viewBox="0 0 810 809.999993" height="1080" preserveAspectRatio="xMidYMid meet" version="1.0"><defs><g/></defs><rect x="-81" width="972" fill="#ffffff" y="-80.999999" height="971.999992" fill-opacity="1"/><rect x="-81" width="972" fill="#05263b" y="-80.999999" height="971.999992" fill-opacity="1"/><rect x="-81" width="972" fill="#ffffff" y="-80.999999" height="971.999992" fill-opacity="1"/><rect x="-81" width="972" fill="#05263b" y="-80.999999" height="971.999992" fill-opacity="1"/><g fill="#ffffff" fill-opacity="1"><g transform="translate(160.666987, 449.999997)"><g><path d="M 69.421875 -91.65625 L 69.421875 -71.375 L 32.765625 -71.375 L 32.765625 -55.25 L 59.796875 -55.25 L 59.796875 -35.875 L 32.765625 -35.875 L 32.765625 0 L 7.28125 0 L 7.28125 -91.65625 Z M 69.421875 -91.65625 "/></g></g></g><g fill="#ffffff" fill-opacity="1"><g transform="translate(233.594802, 449.999997)"><g><path d="M 32.765625 -96.203125 L 32.765625 0 L 7.28125 0 L 7.28125 -96.203125 Z M 32.765625 -96.203125 "/></g></g></g><g fill="#ffffff" fill-opacity="1"><g transform="translate(273.633603, 449.999997)"><g><path d="M 3.125 -36.53125 C 3.125 -44.070312 4.488281 -50.65625 7.21875 -56.28125 C 9.945312 -61.914062 13.671875 -66.25 18.390625 -69.28125 C 23.117188 -72.320312 28.382812 -73.84375 34.1875 -73.84375 C 39.21875 -73.84375 43.550781 -72.84375 47.1875 -70.84375 C 50.832031 -68.851562 53.648438 -66.171875 55.640625 -62.796875 L 55.640625 -72.9375 L 81.125 -72.9375 L 81.125 0 L 55.640625 0 L 55.640625 -10.140625 C 53.648438 -6.753906 50.8125 -4.066406 47.125 -2.078125 C 43.4375 -0.0859375 39.125 0.90625 34.1875 0.90625 C 28.382812 0.90625 23.117188 -0.609375 18.390625 -3.640625 C 13.671875 -6.671875 9.945312 -11.023438 7.21875 -16.703125 C 4.488281 -22.378906 3.125 -28.988281 3.125 -36.53125 Z M 55.640625 -36.53125 C 55.640625 -41.207031 54.359375 -44.890625 51.796875 -47.578125 C 49.242188 -50.265625 46.101562 -51.609375 42.375 -51.609375 C 38.5625 -51.609375 35.398438 -50.285156 32.890625 -47.640625 C 30.378906 -45.003906 29.125 -41.300781 29.125 -36.53125 C 29.125 -31.851562 30.378906 -28.144531 32.890625 -25.40625 C 35.398438 -22.675781 38.5625 -21.3125 42.375 -21.3125 C 46.101562 -21.3125 49.242188 -22.65625 51.796875 -25.34375 C 54.359375 -28.03125 55.640625 -31.757812 55.640625 -36.53125 Z M 55.640625 -36.53125 "/></g></g></g><g fill="#ffffff" fill-opacity="1"><g transform="translate(362.030946, 449.999997)"><g><path d="M 34.1875 -73.84375 C 39.125 -73.84375 43.4375 -72.84375 47.125 -70.84375 C 50.8125 -68.851562 53.648438 -66.171875 55.640625 -62.796875 L 55.640625 -72.9375 L 81.125 -72.9375 L 81.125 -0.78125 C 81.125 6.0625 79.820312 12.234375 77.21875 17.734375 C 74.613281 23.242188 70.5625 27.644531 65.0625 30.9375 C 59.5625 34.226562 52.609375 35.875 44.203125 35.875 C 32.929688 35.875 23.914062 33.226562 17.15625 27.9375 C 10.394531 22.65625 6.539062 15.46875 5.59375 6.375 L 30.6875 6.375 C 31.195312 8.707031 32.492188 10.523438 34.578125 11.828125 C 36.660156 13.128906 39.347656 13.78125 42.640625 13.78125 C 51.304688 13.78125 55.640625 8.925781 55.640625 -0.78125 L 55.640625 -10.140625 C 53.648438 -6.753906 50.8125 -4.066406 47.125 -2.078125 C 43.4375 -0.0859375 39.125 0.90625 34.1875 0.90625 C 28.382812 0.90625 23.117188 -0.609375 18.390625 -3.640625 C 13.671875 -6.671875 9.945312 -11.023438 7.21875 -16.703125 C 4.488281 -22.378906 3.125 -28.988281 3.125 -36.53125 C 3.125 -44.070312 4.488281 -50.65625 7.21875 -56.28125 C 9.945312 -61.914062 13.671875 -66.25 18.390625 -69.28125 C 23.117188 -72.320312 28.382812 -73.84375 34.1875 -73.84375 Z M 55.640625 -36.53125 C 55.640625 -41.207031 54.359375 -44.890625 51.796875 -47.578125 C 49.242188 -50.265625 46.101562 -51.609375 42.375 -51.609375 C 38.5625 -51.609375 35.398438 -50.285156 32.890625 -47.640625 C 30.378906 -45.003906 29.125 -41.300781 29.125 -36.53125 C 29.125 -31.851562 30.378906 -28.144531 32.890625 -25.40625 C 35.398438 -22.675781 38.5625 -21.3125 42.375 -21.3125 C 46.101562 -21.3125 49.242188 -22.65625 51.796875 -25.34375 C 54.359375 -28.03125 55.640625 -31.757812 55.640625 -36.53125 Z M 55.640625 -36.53125 "/></g></g></g><g fill="#ffffff" fill-opacity="1"><g transform="translate(450.42831, 449.999997)"><g><path d="M 51.21875 0.90625 C 42.632812 0.90625 34.742188 -1.109375 27.546875 -5.140625 C 20.359375 -9.171875 14.660156 -14.757812 10.453125 -21.90625 C 6.253906 -29.050781 4.15625 -37.132812 4.15625 -46.15625 C 4.15625 -55.164062 6.253906 -63.242188 10.453125 -70.390625 C 14.660156 -77.546875 20.359375 -83.113281 27.546875 -87.09375 C 34.742188 -91.082031 42.632812 -93.078125 51.21875 -93.078125 C 59.882812 -93.078125 67.789062 -91.082031 74.9375 -87.09375 C 82.09375 -83.113281 87.75 -77.546875 91.90625 -70.390625 C 96.070312 -63.242188 98.15625 -55.164062 98.15625 -46.15625 C 98.15625 -37.132812 96.070312 -29.050781 91.90625 -21.90625 C 87.75 -14.757812 82.070312 -9.171875 74.875 -5.140625 C 67.6875 -1.109375 59.800781 0.90625 51.21875 0.90625 Z M 51.21875 -22.75 C 57.71875 -22.75 62.851562 -24.867188 66.625 -29.109375 C 70.394531 -33.359375 72.28125 -39.039062 72.28125 -46.15625 C 72.28125 -53.425781 70.394531 -59.164062 66.625 -63.375 C 62.851562 -67.582031 57.71875 -69.6875 51.21875 -69.6875 C 44.632812 -69.6875 39.476562 -67.582031 35.75 -63.375 C 32.019531 -59.164062 30.15625 -53.425781 30.15625 -46.15625 C 30.15625 -38.957031 32.019531 -33.253906 35.75 -29.046875 C 39.476562 -24.847656 44.632812 -22.75 51.21875 -22.75 Z M 51.21875 -22.75 "/></g></g></g><g fill="#ffffff" fill-opacity="1"><g transform="translate(552.735236, 449.999997)"><g><path d="M 89.3125 -91.65625 L 89.3125 0 L 63.828125 0 L 63.828125 -36.796875 L 32.765625 -36.796875 L 32.765625 0 L 7.28125 0 L 7.28125 -91.65625 L 32.765625 -91.65625 L 32.765625 -57.203125 L 63.828125 -57.203125 L 63.828125 -91.65625 Z M 89.3125 -91.65625 "/></g></g></g></svg>