<svg xmlns="http://www.w3.org/2000/svg" xmlns:xlink="http://www.w3.org/1999/xlink" width="500" zoomAndPan="magnify" viewBox="0 0 375 374.999991" height="500" preserveAspectRatio="xMidYMid meet" version="1.0"><defs><clipPath id="db3c9bda8c"><path d="M 95.613281 63.460938 L 168.066406 63.460938 L 168.066406 148 L 95.613281 148 Z M 95.613281 63.460938 " clip-rule="nonzero"/></clipPath><clipPath id="6b4b7f2b23"><path d="M 123.738281 63.460938 L 168.066406 63.460938 L 139.941406 147.835938 L 95.613281 147.835938 Z M 123.738281 63.460938 " clip-rule="nonzero"/></clipPath><clipPath id="30171cf086"><path d="M 155.324219 63.460938 L 210.984375 63.460938 L 210.984375 128.46875 L 155.324219 128.46875 Z M 155.324219 63.460938 " clip-rule="nonzero"/></clipPath><clipPath id="c81d7ed568"><path d="M 176.929688 63.460938 L 210.984375 63.460938 L 189.375 128.28125 L 155.324219 128.28125 Z M 176.929688 63.460938 " clip-rule="nonzero"/></clipPath><clipPath id="b345bc489f"><path d="M 0 37.5 L 375 37.5 L 375 337.5 L 0 337.5 Z M 0 37.5 " clip-rule="nonzero"/></clipPath><clipPath id="b2471a25f5"><path d="M 56.25 37.5 L 318.75 37.5 C 333.667969 37.5 347.976562 43.425781 358.523438 53.976562 C 369.074219 64.523438 375 78.832031 375 93.75 L 375 281.25 C 375 312.316406 349.816406 337.5 318.75 337.5 L 56.25 337.5 C 41.332031 337.5 27.023438 331.574219 16.476562 321.023438 C 5.925781 310.476562 0 296.167969 0 281.25 L 0 93.75 C 0 62.683594 25.183594 37.5 56.25 37.5 Z M 56.25 37.5 " clip-rule="nonzero"/></clipPath><clipPath id="cdf257d0fb"><path d="M 47.058594 84.5625 L 328 84.5625 L 328 290.4375 L 47.058594 290.4375 Z M 47.058594 84.5625 " clip-rule="nonzero"/></clipPath><clipPath id="63de15a2c1"><path d="M 77.058594 84.5625 L 297.941406 84.5625 C 314.511719 84.5625 327.941406 97.992188 327.941406 114.5625 L 327.941406 260.4375 C 327.941406 277.007812 314.511719 290.4375 297.941406 290.4375 L 77.058594 290.4375 C 60.488281 290.4375 47.058594 277.007812 47.058594 260.4375 L 47.058594 114.5625 C 47.058594 97.992188 60.488281 84.5625 77.058594 84.5625 Z M 77.058594 84.5625 " clip-rule="nonzero"/></clipPath><clipPath id="8a993c27e2"><path d="M 81.507812 102.578125 L 182.175781 102.578125 L 182.175781 264.589844 L 81.507812 264.589844 Z M 81.507812 102.578125 " clip-rule="nonzero"/></clipPath><clipPath id="c11d750b1b"><path d="M 92.757812 102.578125 L 170.925781 102.578125 C 173.90625 102.578125 176.769531 103.765625 178.878906 105.875 C 180.988281 107.984375 182.175781 110.84375 182.175781 113.828125 L 182.175781 252.980469 C 182.175781 255.964844 180.988281 258.824219 178.878906 260.933594 C 176.769531 263.042969 173.90625 264.230469 170.925781 264.230469 L 92.757812 264.230469 C 89.773438 264.230469 86.910156 263.042969 84.800781 260.933594 C 82.691406 258.824219 81.507812 255.964844 81.507812 252.980469 L 81.507812 113.828125 C 81.507812 107.617188 86.542969 102.578125 92.757812 102.578125 Z M 92.757812 102.578125 " clip-rule="nonzero"/></clipPath><clipPath id="cb63db4fc0"><path d="M 202.792969 102.578125 L 303.457031 102.578125 L 303.457031 205.210938 L 202.792969 205.210938 Z M 202.792969 102.578125 " clip-rule="nonzero"/></clipPath><clipPath id="c560ff598b"><path d="M 214.042969 102.578125 L 292.207031 102.578125 C 295.191406 102.578125 298.054688 103.765625 300.164062 105.875 C 302.273438 107.984375 303.457031 110.84375 303.457031 113.828125 L 303.457031 193.816406 C 303.457031 196.800781 302.273438 199.660156 300.164062 201.773438 C 298.054688 203.882812 295.191406 205.066406 292.207031 205.066406 L 214.042969 205.066406 C 211.058594 205.066406 208.195312 203.882812 206.085938 201.773438 C 203.976562 199.660156 202.792969 196.800781 202.792969 193.816406 L 202.792969 113.828125 C 202.792969 107.617188 207.828125 102.578125 214.042969 102.578125 Z M 214.042969 102.578125 " clip-rule="nonzero"/></clipPath></defs><g clip-path="url(#db3c9bda8c)"><g clip-path="url(#6b4b7f2b23)"><path fill="#ffffff" d="M 95.613281 63.460938 L 168.066406 63.460938 L 168.066406 147.796875 L 95.613281 147.796875 Z M 95.613281 63.460938 " fill-opacity="1" fill-rule="nonzero"/></g></g><g clip-path="url(#30171cf086)"><g clip-path="url(#c81d7ed568)"><path fill="#ffffff" d="M 155.324219 63.460938 L 210.984375 63.460938 L 210.984375 128.25 L 155.324219 128.25 Z M 155.324219 63.460938 " fill-opacity="1" fill-rule="nonzero"/></g></g><g clip-path="url(#b345bc489f)"><g clip-path="url(#b2471a25f5)"><path fill="#132f49" d="M 0 37.5 L 375 37.5 L 375 337.5 L 0 337.5 Z M 0 37.5 " fill-opacity="1" fill-rule="nonzero"/></g></g><g clip-path="url(#cdf257d0fb)"><g clip-path="url(#63de15a2c1)"><path fill="#ffffff" d="M 47.058594 84.5625 L 327.726562 84.5625 L 327.726562 290.4375 L 47.058594 290.4375 Z M 47.058594 84.5625 " fill-opacity="1" fill-rule="nonzero"/></g></g><g clip-path="url(#8a993c27e2)"><g clip-path="url(#c11d750b1b)"><path fill="#132f49" d="M 81.507812 102.578125 L 182.175781 102.578125 L 182.175781 264.199219 L 81.507812 264.199219 Z M 81.507812 102.578125 " fill-opacity="1" fill-rule="nonzero"/></g></g><g clip-path="url(#cb63db4fc0)"><g clip-path="url(#c560ff598b)"><path fill="#132f49" d="M 202.792969 102.578125 L 303.457031 102.578125 L 303.457031 205.210938 L 202.792969 205.210938 Z M 202.792969 102.578125 " fill-opacity="1" fill-rule="nonzero"/></g></g></svg>